<mxfile host="app.diagrams.net" modified="2023-10-08T05:32:05.457Z" agent="Mozilla/5.0 (Windows NT 10.0; Win64; x64) AppleWebKit/537.36 (KHTML, like Gecko) Chrome/116.0.0.0 Safari/537.36 OPR/102.0.0.0" etag="K5P4wox5O2HZ5V7xx8F9" version="22.0.4" type="google">
  <diagram name="Page-1" id="HYVrEIYt-T85iGZboiKp">
    <mxGraphModel grid="1" page="1" gridSize="10" guides="1" tooltips="1" connect="1" arrows="1" fold="1" pageScale="1" pageWidth="850" pageHeight="1100" math="0" shadow="0">
      <root>
        <mxCell id="0" />
        <mxCell id="1" parent="0" />
        <mxCell id="fiSl2N6UgMdapChilT-T-3" style="edgeStyle=orthogonalEdgeStyle;rounded=0;orthogonalLoop=1;jettySize=auto;html=1;entryX=0.5;entryY=0;entryDx=0;entryDy=0;" edge="1" parent="1" source="fiSl2N6UgMdapChilT-T-1" target="fiSl2N6UgMdapChilT-T-2">
          <mxGeometry relative="1" as="geometry" />
        </mxCell>
        <mxCell id="fiSl2N6UgMdapChilT-T-1" value="bắt đầu" style="ellipse;whiteSpace=wrap;html=1;" vertex="1" parent="1">
          <mxGeometry x="365.5" y="-100" width="120" height="80" as="geometry" />
        </mxCell>
        <mxCell id="fiSl2N6UgMdapChilT-T-29" style="edgeStyle=orthogonalEdgeStyle;rounded=0;orthogonalLoop=1;jettySize=auto;html=1;entryX=0.5;entryY=0;entryDx=0;entryDy=0;" edge="1" parent="1" source="fiSl2N6UgMdapChilT-T-2" target="fiSl2N6UgMdapChilT-T-28">
          <mxGeometry relative="1" as="geometry" />
        </mxCell>
        <mxCell id="fiSl2N6UgMdapChilT-T-2" value="nhập vào&amp;nbsp;&lt;br&gt;nam = năm" style="shape=parallelogram;perimeter=parallelogramPerimeter;whiteSpace=wrap;html=1;fixedSize=1;" vertex="1" parent="1">
          <mxGeometry x="365.5" y="50" width="120" height="60" as="geometry" />
        </mxCell>
        <mxCell id="fiSl2N6UgMdapChilT-T-7" style="edgeStyle=orthogonalEdgeStyle;rounded=0;orthogonalLoop=1;jettySize=auto;html=1;entryX=1;entryY=0.5;entryDx=0;entryDy=0;" edge="1" parent="1" source="fiSl2N6UgMdapChilT-T-4" target="fiSl2N6UgMdapChilT-T-6">
          <mxGeometry relative="1" as="geometry" />
        </mxCell>
        <mxCell id="fiSl2N6UgMdapChilT-T-9" style="edgeStyle=orthogonalEdgeStyle;rounded=0;orthogonalLoop=1;jettySize=auto;html=1;entryX=0;entryY=0.5;entryDx=0;entryDy=0;" edge="1" parent="1" source="fiSl2N6UgMdapChilT-T-4" target="fiSl2N6UgMdapChilT-T-8">
          <mxGeometry relative="1" as="geometry" />
        </mxCell>
        <mxCell id="fiSl2N6UgMdapChilT-T-4" value="kiểm tra&amp;nbsp;&lt;br&gt;nam % 4 = 0" style="rhombus;whiteSpace=wrap;html=1;" vertex="1" parent="1">
          <mxGeometry x="358" y="310" width="135" height="110" as="geometry" />
        </mxCell>
        <mxCell id="fiSl2N6UgMdapChilT-T-6" value="tháng 2 có 28 ngày" style="rounded=0;whiteSpace=wrap;html=1;" vertex="1" parent="1">
          <mxGeometry x="130" y="335" width="120" height="60" as="geometry" />
        </mxCell>
        <mxCell id="fiSl2N6UgMdapChilT-T-8" value="tháng 2 có 29 ngày" style="rounded=0;whiteSpace=wrap;html=1;" vertex="1" parent="1">
          <mxGeometry x="600" y="335" width="120" height="60" as="geometry" />
        </mxCell>
        <mxCell id="fiSl2N6UgMdapChilT-T-10" value="sai" style="text;html=1;strokeColor=none;fillColor=none;align=center;verticalAlign=middle;whiteSpace=wrap;rounded=0;" vertex="1" parent="1">
          <mxGeometry x="290" y="340" width="60" height="30" as="geometry" />
        </mxCell>
        <mxCell id="fiSl2N6UgMdapChilT-T-11" value="đúng" style="text;html=1;strokeColor=none;fillColor=none;align=center;verticalAlign=middle;whiteSpace=wrap;rounded=0;" vertex="1" parent="1">
          <mxGeometry x="500" y="340" width="60" height="30" as="geometry" />
        </mxCell>
        <mxCell id="fiSl2N6UgMdapChilT-T-18" style="edgeStyle=orthogonalEdgeStyle;rounded=0;orthogonalLoop=1;jettySize=auto;html=1;entryX=0.5;entryY=0;entryDx=0;entryDy=0;" edge="1" parent="1" source="fiSl2N6UgMdapChilT-T-14" target="fiSl2N6UgMdapChilT-T-19">
          <mxGeometry relative="1" as="geometry">
            <mxPoint x="426" y="620" as="targetPoint" />
          </mxGeometry>
        </mxCell>
        <mxCell id="fiSl2N6UgMdapChilT-T-14" value="nhập vào số tháng" style="rounded=0;whiteSpace=wrap;html=1;" vertex="1" parent="1">
          <mxGeometry x="130" y="490" width="120" height="60" as="geometry" />
        </mxCell>
        <mxCell id="fiSl2N6UgMdapChilT-T-16" value="" style="endArrow=classic;html=1;rounded=0;entryX=0.5;entryY=0;entryDx=0;entryDy=0;exitX=0.5;exitY=1;exitDx=0;exitDy=0;" edge="1" parent="1" source="fiSl2N6UgMdapChilT-T-6" target="fiSl2N6UgMdapChilT-T-14">
          <mxGeometry width="50" height="50" relative="1" as="geometry">
            <mxPoint x="380" y="500" as="sourcePoint" />
            <mxPoint x="430" y="450" as="targetPoint" />
          </mxGeometry>
        </mxCell>
        <mxCell id="fiSl2N6UgMdapChilT-T-24" style="edgeStyle=orthogonalEdgeStyle;rounded=0;orthogonalLoop=1;jettySize=auto;html=1;entryX=0.5;entryY=0;entryDx=0;entryDy=0;" edge="1" parent="1" source="fiSl2N6UgMdapChilT-T-19" target="fiSl2N6UgMdapChilT-T-25">
          <mxGeometry relative="1" as="geometry">
            <mxPoint x="190" y="960" as="targetPoint" />
          </mxGeometry>
        </mxCell>
        <mxCell id="fiSl2N6UgMdapChilT-T-19" value="tính số ngày trong tháng&lt;br&gt;thang 1 = 31&lt;br&gt;thang 2 = 28&lt;br&gt;thang 3 = 31&lt;br&gt;thang 4 = 30&amp;nbsp;&lt;br&gt;thang 5 = 31&lt;br&gt;thang 6 = 30&amp;nbsp;&lt;br&gt;thang 7 = 31&lt;br&gt;thang 8 = 31&lt;br&gt;thang 9 = 30&lt;br&gt;thang 10 = 31&lt;br&gt;thang 11 = 30&lt;br&gt;thang 12 = 31" style="rounded=0;whiteSpace=wrap;html=1;" vertex="1" parent="1">
          <mxGeometry x="113" y="660" width="154" height="220" as="geometry" />
        </mxCell>
        <mxCell id="fiSl2N6UgMdapChilT-T-20" style="edgeStyle=orthogonalEdgeStyle;rounded=0;orthogonalLoop=1;jettySize=auto;html=1;entryX=0.5;entryY=0;entryDx=0;entryDy=0;" edge="1" parent="1" source="fiSl2N6UgMdapChilT-T-21" target="fiSl2N6UgMdapChilT-T-22">
          <mxGeometry relative="1" as="geometry">
            <mxPoint x="896" y="620" as="targetPoint" />
          </mxGeometry>
        </mxCell>
        <mxCell id="fiSl2N6UgMdapChilT-T-21" value="nhập vào số tháng" style="rounded=0;whiteSpace=wrap;html=1;" vertex="1" parent="1">
          <mxGeometry x="600" y="490" width="120" height="60" as="geometry" />
        </mxCell>
        <mxCell id="fiSl2N6UgMdapChilT-T-22" value="tính số ngày trong tháng&lt;br&gt;thang 1 = 31&lt;br&gt;thang 2 = 29&lt;br&gt;thang 3 = 31&lt;br&gt;thang 4 = 30&amp;nbsp;&lt;br&gt;thang 5 = 31&lt;br&gt;thang 6 = 30&amp;nbsp;&lt;br&gt;thang 7 = 31&lt;br&gt;thang 8 = 31&lt;br&gt;thang 9 = 30&lt;br&gt;thang 10 = 31&lt;br&gt;thang 11 = 30&lt;br&gt;thang 12 = 31" style="rounded=0;whiteSpace=wrap;html=1;" vertex="1" parent="1">
          <mxGeometry x="583" y="660" width="154" height="220" as="geometry" />
        </mxCell>
        <mxCell id="fiSl2N6UgMdapChilT-T-23" value="" style="endArrow=classic;html=1;rounded=0;entryX=0.5;entryY=0;entryDx=0;entryDy=0;exitX=0.5;exitY=1;exitDx=0;exitDy=0;" edge="1" parent="1" target="fiSl2N6UgMdapChilT-T-21">
          <mxGeometry width="50" height="50" relative="1" as="geometry">
            <mxPoint x="660" y="395" as="sourcePoint" />
            <mxPoint x="900" y="450" as="targetPoint" />
          </mxGeometry>
        </mxCell>
        <mxCell id="fiSl2N6UgMdapChilT-T-25" value="xuất ra tháng và năm cần tính" style="shape=parallelogram;perimeter=parallelogramPerimeter;whiteSpace=wrap;html=1;fixedSize=1;" vertex="1" parent="1">
          <mxGeometry x="85" y="980" width="210" height="60" as="geometry" />
        </mxCell>
        <mxCell id="fiSl2N6UgMdapChilT-T-26" value="xuất ra tháng và năm cần tính" style="shape=parallelogram;perimeter=parallelogramPerimeter;whiteSpace=wrap;html=1;fixedSize=1;" vertex="1" parent="1">
          <mxGeometry x="555" y="980" width="210" height="60" as="geometry" />
        </mxCell>
        <mxCell id="fiSl2N6UgMdapChilT-T-27" style="edgeStyle=orthogonalEdgeStyle;rounded=0;orthogonalLoop=1;jettySize=auto;html=1;entryX=0.5;entryY=0;entryDx=0;entryDy=0;" edge="1" parent="1" target="fiSl2N6UgMdapChilT-T-26">
          <mxGeometry relative="1" as="geometry">
            <mxPoint x="660" y="960" as="targetPoint" />
            <mxPoint x="660" y="880" as="sourcePoint" />
          </mxGeometry>
        </mxCell>
        <mxCell id="fiSl2N6UgMdapChilT-T-30" style="edgeStyle=orthogonalEdgeStyle;rounded=0;orthogonalLoop=1;jettySize=auto;html=1;entryX=0.5;entryY=0;entryDx=0;entryDy=0;" edge="1" parent="1" source="fiSl2N6UgMdapChilT-T-28" target="fiSl2N6UgMdapChilT-T-4">
          <mxGeometry relative="1" as="geometry" />
        </mxCell>
        <mxCell id="fiSl2N6UgMdapChilT-T-32" style="edgeStyle=orthogonalEdgeStyle;rounded=0;orthogonalLoop=1;jettySize=auto;html=1;entryX=0.75;entryY=0;entryDx=0;entryDy=0;" edge="1" parent="1" source="fiSl2N6UgMdapChilT-T-28" target="fiSl2N6UgMdapChilT-T-2">
          <mxGeometry relative="1" as="geometry">
            <mxPoint x="460" y="10" as="targetPoint" />
            <Array as="points">
              <mxPoint x="600" y="200" />
              <mxPoint x="600" y="10" />
              <mxPoint x="456" y="10" />
            </Array>
          </mxGeometry>
        </mxCell>
        <mxCell id="fiSl2N6UgMdapChilT-T-28" value="kiểm tra&lt;br&gt;0&amp;lt;= nam" style="rhombus;whiteSpace=wrap;html=1;" vertex="1" parent="1">
          <mxGeometry x="385" y="160" width="80" height="80" as="geometry" />
        </mxCell>
        <mxCell id="fiSl2N6UgMdapChilT-T-31" value="đúng" style="text;html=1;strokeColor=none;fillColor=none;align=center;verticalAlign=middle;whiteSpace=wrap;rounded=0;" vertex="1" parent="1">
          <mxGeometry x="425" y="250" width="60" height="30" as="geometry" />
        </mxCell>
        <mxCell id="fiSl2N6UgMdapChilT-T-34" value="sai" style="text;html=1;strokeColor=none;fillColor=none;align=center;verticalAlign=middle;whiteSpace=wrap;rounded=0;" vertex="1" parent="1">
          <mxGeometry x="480" y="170" width="60" height="30" as="geometry" />
        </mxCell>
        <mxCell id="fiSl2N6UgMdapChilT-T-35" value="nhập lại năm" style="rounded=0;whiteSpace=wrap;html=1;" vertex="1" parent="1">
          <mxGeometry x="555" y="170" width="120" height="60" as="geometry" />
        </mxCell>
      </root>
    </mxGraphModel>
  </diagram>
</mxfile>
